<?xml version="1.0" encoding="UTF-8" standalone="no"?>
<!-- Created with Inkscape (http://www.inkscape.org/) -->
<svg xmlns:dc="http://purl.org/dc/elements/1.1/" xmlns:cc="http://creativecommons.org/ns#" xmlns:rdf="http://www.w3.org/1999/02/22-rdf-syntax-ns#" xmlns:svg="http://www.w3.org/2000/svg" xmlns="http://www.w3.org/2000/svg" xmlns:sodipodi="http://sodipodi.sourceforge.net/DTD/sodipodi-0.dtd" xmlns:inkscape="http://www.inkscape.org/namespaces/inkscape" width="201.87009mm" height="68.853958mm" viewBox="0 0 201.87009 68.853958" version="1.1" id="svg11021" sodipodi:docname="avro-proposed.svg" inkscape:version="0.92.3 (2405546, 2018-03-11)">
  <defs id="defs11015"/>
  <sodipodi:namedview id="base" pagecolor="#ffffff" bordercolor="#666666" borderopacity="1.0" inkscape:pageopacity="0.0" inkscape:pageshadow="2" inkscape:zoom="1.8596429" inkscape:cx="393.66118" inkscape:cy="155.15714" inkscape:document-units="mm" inkscape:current-layer="text11601" showgrid="false" fit-margin-top="0" fit-margin-left="0" fit-margin-right="0" fit-margin-bottom="0" inkscape:window-width="3726" inkscape:window-height="2049" inkscape:window-x="114" inkscape:window-y="55" inkscape:window-maximized="1"/>
  <metadata id="metadata11018">
    <rdf:RDF>
      <cc:Work rdf:about="">
        <dc:format>image/svg+xml</dc:format>
        <dc:type rdf:resource="http://purl.org/dc/dcmitype/StillImage"/>
        <dc:title/>
      </cc:Work>
    </rdf:RDF>
  </metadata>
  <g inkscape:label="Layer 1" inkscape:groupmode="layer" id="layer1" transform="translate(-0.84381324,-103.61557)">
    <g id="g11645">
      <path inkscape:connector-curvature="0" id="path10963" d="m 0.8910304,104.00703 c 0.1312698,3.50062 3.0322765,6.23833 5.9200386,7.88818 8.873576,4.87411 19.189065,5.63593 28.939324,7.59834 4.6366,0.95241 9.386986,1.6477 13.805858,3.37749 1.222443,0.57399 -0.48108,0.10756 -1.016897,-0.0632 -7.950676,-1.9134 -16.153831,-2.35544 -24.195227,-3.76755 -4.908237,-0.8005 -9.717287,-2.29355 -14.128689,-4.60554 -0.851923,-0.43187 -0.463673,-0.022 -0.25825,0.4305 2.263916,3.07037 5.657029,5.05733 9.28372,6.10799 5.973649,1.74215 12.262523,1.82274 18.419478,2.40904 5.133908,0.39802 10.362729,0.52361 15.339252,1.89925 0.4156,0.35421 0.561124,0.79144 -0.344337,0.4305 -7.908137,-1.54501 -16.001443,-1.09685 -24.00155,-1.48496 -3.184611,-0.17549 -6.315144,-1.20733 -9.313316,-2.04455 0.08766,0.41972 0.968161,1.0691 1.495726,1.67337 4.173262,3.36253 9.854758,3.52085 14.977764,3.47534 6.241484,-0.0304 12.512071,-0.42858 18.735235,0.10255 0.739253,1.10098 -0.609817,0.72669 -1.377374,0.60268 -5.852462,-0.37014 -11.680379,0.32402 -17.514911,0.64663 -3.662918,0.24399 -7.344352,-0.1835 -10.866452,-1.16316 -0.756229,-0.0208 0.291328,0.76492 0.590746,1.13399 3.05011,2.9767 7.686642,2.94381 11.655081,2.53546 4.856971,-0.33492 9.660278,-1.21797 14.506065,-1.60333 1.203143,0 2.406287,0 3.60943,0 0.31621,1.2317 -1.340318,0.48514 -2.053933,0.69137 -5.0398,0.2008 -9.929311,1.63124 -14.93674,2.16356 -2.877654,0.44704 -5.840942,0.2286 -8.662627,-0.35848 -0.8098,-0.29854 -0.0359,0.41301 0.194233,0.61395 1.949481,2.04696 4.677296,3.39556 7.553388,3.08778 4.978306,0.0364 9.541433,-2.27099 14.303879,-3.4064 0.744014,-0.5134 5.066697,-0.88272 2.827018,0.006 -4.939502,1.24099 -9.527849,3.7154 -14.588702,4.47103 -1.413959,0.19054 -2.841951,0.1213 -4.263893,0.1345 0.547409,0.59374 1.666307,1.81277 2.604062,2.53958 2.346962,2.2249 6.138082,3.41934 9.01201,1.4473 2.416662,-1.59888 4.403384,-4.05589 6.461752,-5.88069 0.576521,-0.71529 0.418826,0.17615 -0.09666,0.63358 -1.453612,2.18806 -3.412654,4.09133 -4.444328,6.52227 -0.543932,1.69402 -0.188121,3.97527 1.4046,1.97353 2.176331,-1.69557 4.352663,-3.39115 6.528994,-5.08672 1.152101,-4.10995 4.038986,-7.8761 3.558716,-12.34982 -0.226726,-3.4119 -3.207535,-5.84797 -6.206178,-7.01323 -4.687846,-1.8489 -9.788645,-2.16596 -14.703369,-3.10309 -9.705974,-1.69345 -19.629259,-2.69126 -28.963195,-6.00308 -3.610977,-1.3838 -7.3474447,-3.20964 -9.5890757,-6.49743 l -0.2006694,-0.16461 z" style="opacity:1;fill:#243353;fill-opacity:1;fill-rule:evenodd;stroke:#0b0b0e;stroke-width:0.08608489px;stroke-linecap:butt;stroke-linejoin:miter;stroke-opacity:1"/>
      <path inkscape:connector-curvature="0" id="path10989" d="m 202.67086,103.76021 c -3.06638,4.69577 -8.71509,6.5286 -13.81058,8.12393 -9.80826,2.77138 -19.99169,3.79902 -29.99907,5.60636 -4.50473,0.81487 -9.38414,1.33179 -13.14628,4.17537 -3.29566,2.47995 -3.34914,7.19674 -1.92615,10.71757 0.83477,2.25694 1.95222,4.46182 2.67388,6.71901 2.62323,2.04373 5.24645,4.08745 7.86967,6.13118 1.21994,-2.9528 -1.52227,-5.35995 -3.01112,-7.57749 -0.62503,-1.00278 -1.54652,-1.98561 -2.02305,-2.99156 0.88325,0.56788 1.94584,1.83144 2.95749,2.7853 2.27208,2.26153 4.98285,5.31633 8.55648,4.46744 2.74018,-0.57163 4.97298,-2.72813 6.82226,-4.58405 0.70328,-0.54919 -0.69432,-0.28733 -1.23856,-0.3444 -4.46065,0.13585 -8.65841,-1.78113 -12.804,-3.17976 -1.67798,-0.62035 -3.37912,-1.20488 -5.15433,-1.46882 -0.42717,-1.15545 1.39712,-0.18874 2.0324,-0.23945 5.24046,1.14698 10.24238,3.5721 15.65803,3.7837 2.97583,0.0237 6.24805,-1.27936 7.9629,-3.63042 0.69531,-0.6091 -1.81765,0.36766 -2.30274,0.23672 -5.03735,0.70988 -9.98029,-0.75114 -14.93977,-1.39886 -2.83671,-0.49096 -5.7056,-0.75835 -8.58293,-0.81782 -0.33519,-1.14574 1.07662,-0.54447 1.74296,-0.68868 7.39603,0.0229 14.68205,2.05534 22.0891,1.62081 2.46894,-0.1211 5.15029,-1.33905 6.55593,-3.25645 0.71558,-1.11168 -2.43521,0.39227 -3.14478,0.27435 -8.81312,1.54507 -17.71996,-1.16449 -26.55451,-0.0161 -0.86252,-0.11739 0.26425,-1.20634 0.93023,-0.87167 8.20248,-0.60609 16.45133,0.54156 24.63704,-0.37669 3.47278,-0.40147 7.15555,-1.64269 9.38329,-4.43342 0.52121,-0.79637 -1.72543,0.33799 -2.249,0.35507 -9.58003,2.71671 -19.70342,0.47369 -29.37297,2.60833 -0.71753,0.10277 -1.76639,0.39679 -2.29554,0.3078 0.20024,-0.45962 0.81124,-0.65717 1.57057,-0.76444 10.6727,-2.45089 21.85205,-1.20144 32.45994,-3.98647 3.78668,-1.14792 7.65864,-3.26099 9.70076,-6.69857 -1.39994,0.33671 -3.42427,1.6884 -5.10333,2.13903 -7.63519,3.04099 -15.98094,3.117 -23.97834,4.57562 -3.79665,0.46322 -7.62652,1.13704 -11.29229,2.15215 0.48122,-0.49059 1.70429,-0.64953 2.49657,-1.03308 5.52623,-1.69756 11.27974,-2.54113 16.95267,-3.61077 8.4946,-1.54493 17.38695,-2.74636 24.88997,-7.32201 2.52784,-1.72867 4.91684,-4.28833 4.9872,-7.48875 z" style="opacity:1;fill:#243353;fill-opacity:1;fill-rule:evenodd;stroke:#0b0b0e;stroke-width:0.08608489px;stroke-linecap:butt;stroke-linejoin:miter;stroke-opacity:1"/>
      <path transform="matrix(0.62034291,0,0,0.27903601,36.567491,88.399624)" inkscape:transform-center-y="-9.2013771" d="m 105.07738,87.234573 114.23075,197.853477 -228.4615085,-1e-5 z" inkscape:randomized="0" inkscape:rounded="0" inkscape:flatsided="true" sodipodi:arg2="-0.52359878" sodipodi:arg1="-1.5707963" sodipodi:r2="65.951157" sodipodi:r1="131.90231" sodipodi:cy="219.13689" sodipodi:cx="105.07738" sodipodi:sides="3" id="path11031" style="opacity:1;fill:none;fill-opacity:1;stroke:#243353;stroke-width:11.73031712;stroke-linecap:butt;stroke-linejoin:miter;stroke-miterlimit:4;stroke-dasharray:none;stroke-opacity:1" sodipodi:type="star"/>
      <g id="text11601" style="font-style:normal;font-variant:normal;font-weight:normal;font-stretch:normal;font-size:101.78335571px;line-height:125%;font-family:Montserrat;-inkscape-font-specification:Montserrat;letter-spacing:0px;word-spacing:0px;fill:#243353;fill-opacity:1;stroke:none;stroke-width:7.63375139px;stroke-linecap:butt;stroke-linejoin:miter;stroke-opacity:1" aria-label="AVRO">
        <path inkscape:connector-curvature="0" id="path11603" style="font-style:normal;font-variant:normal;font-weight:bold;font-stretch:normal;font-family:Montserrat;-inkscape-font-specification:'Montserrat Bold';fill:#243353;fill-opacity:1;stroke-width:2.63637638px" d="m 70.841397,166.68221 -2.284863,-5.30789 H 58.257087 l -2.284856,5.30789 H 50.13705 l 10.615807,-24.57102 h 5.307907 l 10.615807,24.57102 z m -7.417009,-17.25948 -3.093347,7.1358 h 6.151543 z"/>
        <path sodipodi:nodetypes="cccccccc" inkscape:connector-curvature="0" id="path11605" style="font-style:normal;font-variant:normal;font-weight:bold;font-stretch:normal;font-family:Montserrat;-inkscape-font-specification:'Montserrat Bold';fill:#243353;fill-opacity:1;stroke-width:2.48371935px" d="m 85.683191,158.27068 5.894692,-34.44184 5.596647,-4.41893 -9.305666,47.2723 h -4.371346 l -9.305673,-30.21854 5.596648,-3.53513 z"/>
        <path sodipodi:nodetypes="sccccccccscsscsssccs" inkscape:connector-curvature="0" id="path11607" style="font-style:normal;font-variant:normal;font-weight:bold;font-stretch:normal;font-family:Montserrat;-inkscape-font-specification:'Montserrat Bold';fill:#243353;fill-opacity:1;stroke-width:3.44519448px" d="m 118.68354,136.92581 c 0,7.13644 -1.46815,11.74539 -4.40446,13.82685 l 5.86158,15.92955 h -6.35832 l -5.13303,-14.20916 h -3.57655 v 14.20916 h -5.166133 v -51.44564 l 8.775803,1.76757 c 3.52779,0.71055 6.15962,6.30721 7.68297,8.64355 1.54543,2.33633 2.31814,6.0957 2.31814,11.27812 z m -9.83552,6.94528 c 1.76619,0 2.96942,-0.55222 3.60967,-1.65667 0.64025,-1.10445 0.96037,-2.84608 0.96037,-5.22489 0,-2.42129 -0.0463,-5.58692 -0.61622,-8.37424 -0.42472,-2.07711 -0.42031,-2.94138 -3.85448,-4.82539 l -3.8746,-2.12563 v 22.20682 z"/>
        <path inkscape:connector-curvature="0" id="path11609" style="font-style:normal;font-variant:normal;font-weight:bold;font-stretch:normal;font-family:Montserrat;-inkscape-font-specification:'Montserrat Bold';fill:#243353;fill-opacity:1;stroke-width:2.74974871px" d="m 143.46569,153.71524 q 0,-3.44635 -2.19979,-5.86614 -2.19981,-2.41978 -5.42618,-2.41978 -3.1897,0 -5.38951,2.41978 -2.19979,2.41979 -2.19979,5.86614 0,3.40969 2.19979,5.82946 2.19981,2.38312 5.38951,2.38312 3.22637,0 5.42618,-2.38312 2.19979,-2.41977 2.19979,-5.82946 z m 1.94315,9.42246 q -3.88631,3.77633 -9.56912,3.77633 -5.68281,0 -9.56913,-3.77633 -3.88631,-3.81298 -3.88631,-9.45913 0,-5.64616 3.88631,-9.42247 3.88632,-3.81299 9.56913,-3.81299 5.68281,0 9.56912,3.81299 3.88632,3.77631 3.88632,9.42247 0,5.64615 -3.88632,9.45913 z"/>
      </g>
      <path transform="matrix(0.75010318,0,0,0.3374034,22.932622,75.609177)" inkscape:transform-center-y="-11.126074" d="m 105.07738,87.234573 114.23075,197.853477 -228.4615085,-1e-5 z" inkscape:randomized="0" inkscape:rounded="0" inkscape:flatsided="true" sodipodi:arg2="-0.52359878" sodipodi:arg1="-1.5707963" sodipodi:r2="65.951157" sodipodi:r1="131.90231" sodipodi:cy="219.13689" sodipodi:cx="105.07738" sodipodi:sides="3" id="path11031-6" style="opacity:1;fill:none;fill-opacity:1;stroke:#243353;stroke-width:3.97552752;stroke-linecap:butt;stroke-linejoin:miter;stroke-miterlimit:4;stroke-dasharray:none;stroke-opacity:1" sodipodi:type="star"/>
      <g aria-label="TM" style="font-style:normal;font-variant:normal;font-weight:normal;font-stretch:normal;font-size:5.1561203px;line-height:125%;font-family:Montserrat;-inkscape-font-specification:Montserrat;letter-spacing:0px;word-spacing:0px;fill:#243353;fill-opacity:1;stroke:none;stroke-width:0.386709px;stroke-linecap:butt;stroke-linejoin:miter;stroke-opacity:1" id="text11632">
        <path d="m 189.93532,167.3716 v 3.04727 h -0.60842 v -3.04727 h -1.0931 v -0.55686 h 2.79462 v 0.55686 z" style="fill:#243353;fill-opacity:1;stroke-width:0.386709px" id="path11647" inkscape:connector-curvature="0"/>
        <path d="m 192.29432,170.41887 h -0.60842 v -3.60413 h 0.94873 l 1.08794,2.26354 1.08794,-2.26354 h 0.94357 v 3.60413 h -0.60842 v -2.81524 l -1.25809,2.50072 h -0.34031 l -1.25294,-2.50072 z" style="fill:#243353;fill-opacity:1;stroke-width:0.386709px" id="path11649" inkscape:connector-curvature="0"/>
      </g>
    </g>
  </g>
</svg>