<svg id="Capa_1" data-name="Capa 1" xmlns="http://www.w3.org/2000/svg" viewBox="0 0 309.49 108.93"><defs><style>.cls-1{fill:#f65959;}.cls-2{fill:#fff;}</style></defs><title>wk-platform</title><circle class="cls-1" cx="39.16" cy="97.88" r="10.54"/><path class="cls-2" d="M41.41,88.88a10,10,0,1,1-10,10,10.05,10.05,0,0,1,10-10m0-1a11,11,0,1,0,11.05,11,11,11,0,0,0-11.05-11Z" transform="translate(-2.25 -1.04)"/><circle class="cls-1" cx="39.16" cy="11.04" r="10.54"/><path class="cls-2" d="M41.41,2a10,10,0,1,1-10,10,10.05,10.05,0,0,1,10-10m0-1a11,11,0,1,0,11.05,11A11,11,0,0,0,41.41,1Z" transform="translate(-2.25 -1.04)"/><path class="cls-1" d="M13.3,84.1A10.55,10.55,0,1,1,23.84,73.55,10.56,10.56,0,0,1,13.3,84.1Z" transform="translate(-2.25 -1.04)"/><path class="cls-2" d="M13.3,63.51a10,10,0,1,1-10,10,10,10,0,0,1,10.05-10m0-1a11,11,0,1,0,11,11,11,11,0,0,0-11-11Z" transform="translate(-2.25 -1.04)"/><path class="cls-1" d="M13.34,48A10.55,10.55,0,1,1,23.68,35.36a10.56,10.56,0,0,1-8.24,12.43A10.61,10.61,0,0,1,13.34,48Z" transform="translate(-2.25 -1.04)"/><path class="cls-2" d="M13.36,27.4h0a10.07,10.07,0,0,1,9.83,8.06A10,10,0,0,1,15.34,47.3a10.43,10.43,0,0,1-2,.2,10,10,0,0,1-2-19.89,9.64,9.64,0,0,1,2-.21m0-1a11.05,11.05,0,1,0,10.81,8.86A11,11,0,0,0,13.36,26.4Z" transform="translate(-2.25 -1.04)"/><circle class="cls-1" cx="39.21" cy="54.46" r="11.04"/><path class="cls-1" d="M98,14.49a3.33,3.33,0,0,1,1.14-1.41,2.71,2.71,0,0,1,1.62-.55,2.59,2.59,0,0,1,1.53.52,3.57,3.57,0,0,1,1.16,1.38q2.32,4.77,4.6,10.31t4.1,10.51q1-7.59,2.26-15.31t2.76-14.76a3.81,3.81,0,0,1,.55-1.32,3,3,0,0,1,.8-.79,2.84,2.84,0,0,1,.89-.4,3.09,3.09,0,0,1,.76-.12,2.54,2.54,0,0,1,1.72.58,2,2,0,0,1,.67,1.56,34.16,34.16,0,0,1-.37,3.89q-.36,2.79-1,6.49t-1.38,7.87q-.77,4.17-1.5,8t-1.4,7c-.45,2.13-.82,3.74-1.11,4.84a4.34,4.34,0,0,1-1.1,2.11,3,3,0,0,1-2.14.71,3,3,0,0,1-2.48-1.32,19.6,19.6,0,0,1-2.21-4.13Q106.67,37.39,105,33t-4.28-10.5Q98,28.63,96.34,33t-2.88,7.23a18.4,18.4,0,0,1-2.23,4.13,3.08,3.08,0,0,1-2.45,1.32q-2.46,0-3.25-2.82c-.33-1.1-.71-2.7-1.16-4.81s-.91-4.43-1.38-7-.95-5.23-1.44-8-.92-5.36-1.29-7.81-.66-4.6-.88-6.46A36.6,36.6,0,0,1,79,4.93a2.31,2.31,0,0,1,.67-1.71,2.56,2.56,0,0,1,1.9-.67,3,3,0,0,1,1.65.52,3.26,3.26,0,0,1,1.17,2.11q1.47,7,2.6,14.76t2.42,15.31q1.89-4.47,3.8-9.49T98,14.49Z" transform="translate(-2.25 -1.04)"/><path class="cls-1" d="M128,41.92q-.12-2.2-.15-4.59c0-1.59,0-3.31-.09-5.14s-.07-3.83-.07-6V19q0-4.35.07-7.44a44.59,44.59,0,0,1,.33-5A7.18,7.18,0,0,1,129,3.65a2,2,0,0,1,1.72-.92,2.74,2.74,0,0,1,1.83.67c.53.45.84,1.49.92,3.13.08,1.47.14,2.77.18,3.92s.09,2.27.13,3.39.06,2.29.06,3.49v7.26l13.1-15a24.49,24.49,0,0,1,4-3.89,4.65,4.65,0,0,1,2.45-1,2.43,2.43,0,0,1,1.81.61,2.13,2.13,0,0,1,.58,1.53,2.39,2.39,0,0,1-.12.74,5.74,5.74,0,0,1-.52,1,15,15,0,0,1-1.2,1.59c-.53.63-1.24,1.44-2.14,2.42l-8.51,9.25L156.69,41a6.08,6.08,0,0,1,.77,1.41,4.08,4.08,0,0,1,.27,1.41,2.88,2.88,0,0,1-.64,1.93,2.8,2.8,0,0,1-2.24.77,3.91,3.91,0,0,1-2.29-.71,7,7,0,0,1-1.87-2.05L139.05,26.55l-5.26,5.76c0,1.55-.09,3.1-.13,4.65s-.1,3.19-.18,4.9a11.22,11.22,0,0,1-.27,2.27,3.09,3.09,0,0,1-.59,1.22,1.43,1.43,0,0,1-.82.52,5.7,5.7,0,0,1-1.07.09,2.44,2.44,0,0,1-1.84-.76C128.4,44.69,128.11,43.6,128,41.92Z" transform="translate(-2.25 -1.04)"/><path class="cls-1" d="M87.31,103.86a7.36,7.36,0,0,1-.28,2.27,3.39,3.39,0,0,1-.67,1.22,1.6,1.6,0,0,1-.92.52,6,6,0,0,1-1,.09,2.56,2.56,0,0,1-2.18-.73,7.69,7.69,0,0,1-.7-3.31c-.08-.9-.14-2.2-.18-3.92s-.08-3.75-.1-6.12,0-5-.06-7.84,0-5.88,0-9.06a20.41,20.41,0,0,1,.55-4.6,10.34,10.34,0,0,1,2.12-4.22,10.87,10.87,0,0,1,4.34-3.06,19,19,0,0,1,7.26-1.17,25.44,25.44,0,0,1,5.94.68,13,13,0,0,1,5,2.32,11.82,11.82,0,0,1,3.43,4.41,16.18,16.18,0,0,1,1.29,6.86,15.85,15.85,0,0,1-1.41,7.11,11.25,11.25,0,0,1-4,4.47,17.21,17.21,0,0,1-6.13,2.32,41.62,41.62,0,0,1-7.77.68H89.69a22.34,22.34,0,0,1-2.32-.13Zm17.63-25.78q0-4.11-2.29-6.19c-1.53-1.38-4.08-2.08-7.63-2.08a15.69,15.69,0,0,0-3.46.34,5.15,5.15,0,0,0-2.35,1.16,4.92,4.92,0,0,0-1.38,2.24,11.5,11.5,0,0,0-.46,3.55v4.75c0,1.77,0,3.44.06,5q1.41.06,3.15.06h3.28a30.24,30.24,0,0,0,3.83-.25,9.71,9.71,0,0,0,3.58-1.13,7.06,7.06,0,0,0,2.63-2.63A9.36,9.36,0,0,0,104.94,78.08Z" transform="translate(-2.25 -1.04)"/><path class="cls-1" d="M116.39,104.17c0-1.47-.08-3.19-.12-5.15s-.07-4.08-.09-6.37,0-4.69-.06-7.22,0-5.12,0-7.78q0-4.35.06-7.47a44.09,44.09,0,0,1,.34-5.14,7.6,7.6,0,0,1,.88-3,1.92,1.92,0,0,1,1.72-1,2.77,2.77,0,0,1,1.84.67c.53.45.83,1.49.91,3.12q.25,4.41.31,9.16c0,3.16.06,6.28.06,9.34V88.7c0,1.7,0,3.37-.06,5s-.08,3.33-.12,5-.1,3.49-.19,5.33a11.11,11.11,0,0,1-.27,2.26,3.2,3.2,0,0,1-.58,1.23,1.5,1.5,0,0,1-.83.52,5.63,5.63,0,0,1-1.07.09,2.44,2.44,0,0,1-1.84-.77C116.76,106.93,116.48,105.84,116.39,104.17Z" transform="translate(-2.25 -1.04)"/><path class="cls-1" d="M154.85,108a3.17,3.17,0,0,1-1.56-.33,2.38,2.38,0,0,1-.89-.89,4.36,4.36,0,0,1-.43-1.32q-.12-.77-.18-1.62a12.42,12.42,0,0,1-3.95,3.18,13,13,0,0,1-6.15,1.29,17.69,17.69,0,0,1-4.87-.7,11.67,11.67,0,0,1-4.5-2.45,13,13,0,0,1-3.31-4.69A18.51,18.51,0,0,1,127.72,93a24.23,24.23,0,0,1,.86-6.55,15.83,15.83,0,0,1,2.6-5.36,12.8,12.8,0,0,1,4.38-3.64,13.42,13.42,0,0,1,6.19-1.35,13.19,13.19,0,0,1,5.57,1.13A11.92,11.92,0,0,1,151.73,81q0-.73.06-1.5a4.29,4.29,0,0,1,.34-1.41,2.24,2.24,0,0,1,.89-1,2.92,2.92,0,0,1,1.65-.4,2.48,2.48,0,0,1,1.71.73c.53.49.84,1.56.92,3.19.12,2.16.22,4.1.28,5.82s.09,3.49.09,5.32q0,3.38-.06,6.19c0,1.88-.15,3.88-.31,6a14.5,14.5,0,0,1-.33,2.24,3.43,3.43,0,0,1-.53,1.22,1.33,1.33,0,0,1-.73.52A3.19,3.19,0,0,1,154.85,108Zm-3.3-15.55a12.38,12.38,0,0,0-1-5.21,8.7,8.7,0,0,0-2.39-3.15,8.36,8.36,0,0,0-3.09-1.56,12.17,12.17,0,0,0-3.07-.43,8.19,8.19,0,0,0-3.76.8A6.87,6.87,0,0,0,135.75,85a9.18,9.18,0,0,0-1.44,3.25,16.79,16.79,0,0,0-.46,4.07c0,3.59.78,6.24,2.36,8a8.25,8.25,0,0,0,6.39,2.57,9.08,9.08,0,0,0,4.08-.83,7.55,7.55,0,0,0,2.75-2.23A9.33,9.33,0,0,0,151,96.48,15.39,15.39,0,0,0,151.55,92.41Z" transform="translate(-2.25 -1.04)"/><path class="cls-1" d="M170.1,103.74q-.18-3.85-.21-9.16t0-12q-.62.06-1.44.06H167.1c-.73,0-1.4,0-2-.06a4.36,4.36,0,0,1-1.56-.37,2.28,2.28,0,0,1-1-.89,2.94,2.94,0,0,1-.37-1.62q0-2.94,4.41-2.94h1.65a9.66,9.66,0,0,1,1.66.12c0-2.16,0-3.89.12-5.2a12.93,12.93,0,0,1,.46-3,2.31,2.31,0,0,1,.92-1.41,3,3,0,0,1,1.5-.34,2.06,2.06,0,0,1,1.59.68,4.7,4.7,0,0,1,1,1.71,10.06,10.06,0,0,1,.43,2.33c.06.86.09,1.69.09,2.51q0,.86,0,1.56t0,1.26a7,7,0,0,1,1.77-.28l1.78,0a7.2,7.2,0,0,1,3.49.7,2.44,2.44,0,0,1,1.22,2.3,2.62,2.62,0,0,1-.42,1.56,2.72,2.72,0,0,1-1.14.89,5.55,5.55,0,0,1-1.65.4c-.63.06-1.32.09-2,.09h-1.41a8.41,8.41,0,0,1-1.47-.12v5.94c0,1.79,0,3.52-.06,5.17s-.08,3.3-.12,4.93-.11,3.37-.19,5.21a11.11,11.11,0,0,1-.27,2.26,3.21,3.21,0,0,1-.59,1.23,1.48,1.48,0,0,1-.82.52,5.7,5.7,0,0,1-1.07.09A2.53,2.53,0,0,1,171,107C170.48,106.5,170.18,105.41,170.1,103.74Z" transform="translate(-2.25 -1.04)"/><path class="cls-1" d="M190.62,82.86,189.3,83,188,83a5.84,5.84,0,0,1-3-.64,2.73,2.73,0,0,1-1-2.48,3.17,3.17,0,0,1,.77-2.24,4.14,4.14,0,0,1,3-.83,21.87,21.87,0,0,1,2.88.19V73.43a19,19,0,0,1,.55-4.66,11.84,11.84,0,0,1,1.71-3.89,8.64,8.64,0,0,1,3-2.69,9.44,9.44,0,0,1,4.57-1,6.16,6.16,0,0,1,3.43.7,2.65,2.65,0,0,1,1,2.3,1.78,1.78,0,0,1-1.28,2,10.94,10.94,0,0,1-2.94.37,3.27,3.27,0,0,0-3,1.77,8.61,8.61,0,0,0-1,4.35v4.29a7.81,7.81,0,0,1,1.56-.22q.76,0,1.62,0a5.39,5.39,0,0,1,3.22.74,2.75,2.75,0,0,1,.95,2.32q0,2-1.29,2.61a8.58,8.58,0,0,1-3.43.58h-1.25a7,7,0,0,1-1.38-.13v21.07a7.85,7.85,0,0,1-.25,2.27,2.88,2.88,0,0,1-.67,1.22,1.75,1.75,0,0,1-1,.52,7.27,7.27,0,0,1-1.16.09,4.24,4.24,0,0,1-1.11-.15,2,2,0,0,1-.95-.61,3.91,3.91,0,0,1-.67-1.26,6.37,6.37,0,0,1-.27-2Z" transform="translate(-2.25 -1.04)"/><path class="cls-1" d="M221.36,76.67a17.19,17.19,0,0,1,6.24,1.07,12.81,12.81,0,0,1,7.66,7.81,18.19,18.19,0,0,1,1,6.31,19.06,19.06,0,0,1-1.19,6.92,15.09,15.09,0,0,1-3.31,5.2,14.46,14.46,0,0,1-5,3.31,16.86,16.86,0,0,1-6.34,1.16,15.77,15.77,0,0,1-6.58-1.28,13.76,13.76,0,0,1-4.78-3.49,14.86,14.86,0,0,1-2.91-5.09,18.68,18.68,0,0,1-1-6.06,17.63,17.63,0,0,1,1.13-6.4,14.45,14.45,0,0,1,3.25-5,14.63,14.63,0,0,1,5.11-3.28A18.47,18.47,0,0,1,221.36,76.67Zm-.68,26.15a9.51,9.51,0,0,0,4.29-.89,8.35,8.35,0,0,0,2.91-2.36,9.62,9.62,0,0,0,1.65-3.33,14.32,14.32,0,0,0,.52-3.89,13.86,13.86,0,0,0-.52-3.89,8.91,8.91,0,0,0-1.59-3.15,7.25,7.25,0,0,0-2.76-2.12,9.63,9.63,0,0,0-4-.76,10.09,10.09,0,0,0-4.16.79,8.4,8.4,0,0,0-3,2.18,9.3,9.3,0,0,0-1.81,3.27,13.31,13.31,0,0,0-.61,4.11,11,11,0,0,0,2.3,7.25Q216.21,102.82,220.68,102.82Z" transform="translate(-2.25 -1.04)"/><path class="cls-1" d="M242.06,104c-.17-1.42-.27-3.16-.31-5.2s-.06-4.51-.06-7.41,0-5.17,0-6.92a33.09,33.09,0,0,1,.34-4.66,6.74,6.74,0,0,1,.94-3.24,2.14,2.14,0,0,1,1.69-.74,5.9,5.9,0,0,1,1.32.13,2.28,2.28,0,0,1,1,.52,2.49,2.49,0,0,1,.7,1.13,6.69,6.69,0,0,1,.25,2,2.05,2.05,0,0,0,.06.49,4.81,4.81,0,0,0,0,.52,6,6,0,0,1,0,.64,18,18,0,0,1,3.76-3.55,8.22,8.22,0,0,1,4.81-1.47q3.62,0,3.61,3a3.16,3.16,0,0,1-1.74,3,6.88,6.88,0,0,1-1.9.71c-.71.16-1.5.33-2.36.49a11,11,0,0,0-3.67,1.38,5.25,5.25,0,0,0-2.33,2.54c0,.77,0,1.35,0,1.71s0,.68.06.92,0,.51,0,.8v1.34q0,3.14-.12,5.85t-.24,5.91a8.44,8.44,0,0,1-.34,2.27,3.39,3.39,0,0,1-.67,1.22,1.62,1.62,0,0,1-.89.52,5.52,5.52,0,0,1-1,.1,2.78,2.78,0,0,1-2.3-.77A7.19,7.19,0,0,1,242.06,104Z" transform="translate(-2.25 -1.04)"/><path class="cls-1" d="M306.11,105.88a9,9,0,0,1-.46-2.32c-.06-.86-.09-1.92-.09-3.19,0-.9,0-1.6,0-2.11s0-1,0-1.35,0-.77,0-1.16,0-.93,0-1.63c0-1.42,0-2.86-.09-4.31a15,15,0,0,0-.64-3.92A6.49,6.49,0,0,0,303.23,83a4.73,4.73,0,0,0-3.37-1.1,6.42,6.42,0,0,0-5.81,3.55Q292,89,291.54,96.82c-.09,1.63-.13,3.12-.13,4.47a21.38,21.38,0,0,1-.24,3.46,4.72,4.72,0,0,1-.89,2.23,2.53,2.53,0,0,1-2.11.8,2.47,2.47,0,0,1-2-.7,4.49,4.49,0,0,1-.89-2.12,20,20,0,0,1-.31-3.43q0-2-.21-4.71c-.12-2-.32-3.84-.58-5.64a19.23,19.23,0,0,0-1.29-4.74,8.49,8.49,0,0,0-2.39-3.28,5.87,5.87,0,0,0-3.82-1.22,4.93,4.93,0,0,0-3.4,1.07,6.15,6.15,0,0,0-1.75,2.82,15.37,15.37,0,0,0-.64,3.92c-.06,1.45-.09,2.9-.09,4.37,0,.74,0,1.28,0,1.63s0,.66,0,1,0,.65,0,1.1,0,1.14,0,2.08c0,1.35,0,2.51-.09,3.49a9.46,9.46,0,0,1-.46,2.51,2.24,2.24,0,0,1-1.16,1.5,3.75,3.75,0,0,1-1.35.28,2.35,2.35,0,0,1-2.45-1.35,11.45,11.45,0,0,1-.61-3.92q0-1.41,0-3.15c0-1.17,0-2.58,0-4.26V92.84c0-.61,0-1.21,0-1.78s0-1.15.06-1.74.05-1.28.09-2a14.55,14.55,0,0,1,1.35-6,9.45,9.45,0,0,1,2.75-3.39,8.2,8.2,0,0,1,3.43-1.5,18.4,18.4,0,0,1,3.37-.34,14.1,14.1,0,0,1,5.57,1,10.21,10.21,0,0,1,5.85,6.18,19.13,19.13,0,0,1,1,4.11,16.5,16.5,0,0,1,1-4,10.4,10.4,0,0,1,2.27-3.56,11.28,11.28,0,0,1,3.88-2.54,15.65,15.65,0,0,1,5.88-1,18.23,18.23,0,0,1,3.4.34,7.26,7.26,0,0,1,3.22,1.5,9.09,9.09,0,0,1,2.48,3.34,16,16,0,0,1,1.19,5.85c0,.77.07,1.46.09,2l.06,1.74c0,.57,0,1.17,0,1.78V95c0,1.68,0,3.09,0,4.26s0,2.21,0,3.15c0,.78,0,1.49-.09,2.14a5,5,0,0,1-.4,1.66,2.51,2.51,0,0,1-.88,1.07,3,3,0,0,1-1.69.4,2.67,2.67,0,0,1-1.59-.4A2.87,2.87,0,0,1,306.11,105.88Z" transform="translate(-2.25 -1.04)"/></svg>